<svg preserveAspectRatio="none" overflow="visible" style="display: block;" width="16" height="16" viewBox="0 0 16 16" fill="none" xmlns="http://www.w3.org/2000/svg">
<g id="icon/compare">
<path id="Vector" d="M3 3.33333H5.66667C6.21895 3.33333 6.66667 3.78105 6.66667 4.33333V11.6667C6.66667 12.219 6.21895 12.6667 5.66667 12.6667H3C2.44772 12.6667 2 12.219 2 11.6667V4.33333C2 3.78105 2.44772 3.33333 3 3.33333Z" stroke-width="1.2" stroke-linecap="round" stroke-linejoin="round" stroke="#1D2B22"/>
<path id="Vector_2" d="M10.3333 3.33333H13C13.5523 3.33333 14 3.78105 14 4.33333V11.6667C14 12.219 13.5523 12.6667 13 12.6667H10.3333C9.78105 12.6667 9.33333 12.219 9.33333 11.6667V4.33333C9.33333 3.78105 9.78105 3.33333 10.3333 3.33333Z" stroke-width="1.2" stroke-linecap="round" stroke-linejoin="round" stroke="#1D2B22"/>
</g>
</svg>
